<svg width="54" height="47" viewBox="0 0 54 47" fill="none" xmlns="http://www.w3.org/2000/svg">
<g filter="url(#filter0_dd_3609_6232)">
<mask id="mask0_3609_6232" style="mask-type:alpha" maskUnits="userSpaceOnUse" x="13" y="12" width="28" height="21">
<path d="M14.3623 20.1958L25.9383 31.7718C26.4387 32.2722 26.6889 32.5224 26.9998 32.5224C27.3108 32.5224 27.561 32.2722 28.0614 31.7718L39.6374 20.1958C40.1378 19.6954 40.388 19.4452 40.388 19.1343C40.388 18.8234 40.1378 18.5732 39.6374 18.0727L36.1933 14.6287C36.0072 14.4426 35.9141 14.3495 35.805 14.2776C35.6959 14.2056 35.5737 14.1567 35.3293 14.059L32.6802 12.9993C32.3743 12.877 32.2214 12.8158 32.0607 12.7849C31.8999 12.7539 31.7352 12.7539 31.4058 12.7539L22.5939 12.7539C22.2645 12.7539 22.0998 12.7539 21.939 12.7849C21.7783 12.8158 21.6253 12.877 21.3195 12.9993L18.6704 14.059C18.426 14.1567 18.3038 14.2056 18.1947 14.2776C18.0856 14.3495 17.9925 14.4426 17.8064 14.6287L14.3623 18.0727C13.8619 18.5732 13.6117 18.8234 13.6117 19.1343C13.6117 19.4452 13.8619 19.6954 14.3623 20.1958Z" fill="#C4C4C4"/>
</mask>
<g mask="url(#mask0_3609_6232)">
<path d="M13.3008 19.1343L26.9998 32.8334L40.6989 19.1343L35.8198 14.2552L32.0666 12.7539L21.9331 12.7539L18.1799 14.2552L13.3008 19.1343Z" fill="url(#paint0_linear_3609_6232)" fill-opacity="0.78"/>
<path d="M33.3805 16.6947L40.6992 19.1343L27.0002 32.8333L33.3805 16.6947Z" fill="black" fill-opacity="0.22"/>
<path d="M20.6191 16.6947H33.3799L26.9995 32.8333L20.6191 16.6947Z" fill="black" fill-opacity="0.18"/>
<path d="M20.6195 16.6947L13.3008 19.1343L26.9998 32.8333L20.6195 16.6947Z" fill="black" fill-opacity="0.12"/>
<path d="M33.3805 16.6946L40.6992 19.1342L35.8201 14.2551L32.0669 12.7538L33.3805 16.6946Z" fill="black" fill-opacity="0.16"/>
<path d="M21.9327 12.7538H32.0663L33.3799 16.6946H20.6191L21.9327 12.7538Z" fill="black" fill-opacity="0.12"/>
<path d="M20.6195 16.6947L13.3008 19.1343L18.1799 14.2552L21.9331 12.7539L20.6195 16.6947Z" fill="black" fill-opacity="0.08"/>
<g opacity="0.68">
<path d="M40.6991 19.1335L33.3804 21.5731L27 32.8326L40.6991 19.1335Z" fill="url(#paint1_linear_3609_6232)"/>
<path d="M33.3799 21.574L20.6191 21.574L26.9995 32.8335L33.3799 21.574Z" fill="url(#paint2_linear_3609_6232)"/>
<path d="M20.6195 21.5731L13.3008 19.1335L26.9998 32.8326L20.6195 21.5731Z" fill="url(#paint3_linear_3609_6232)"/>
<path d="M33.38 21.5731L32.0664 15.7557L35.8196 14.2544L40.6987 19.1335L33.38 21.5731Z" fill="url(#paint4_linear_3609_6232)"/>
<path d="M20.6191 21.574L21.9327 15.7566H32.0663L33.3799 21.574H20.6191Z" fill="url(#paint5_linear_3609_6232)"/>
<path d="M13.3008 19.1335L18.1799 14.2544L21.9331 15.7557L20.6195 21.5731L13.3008 19.1335Z" fill="url(#paint6_linear_3609_6232)"/>
<path d="M21.9329 15.7564L18.1797 14.2552L21.9329 12.7539H32.0664L35.8196 14.2552L32.0664 15.7564H21.9329Z" fill="url(#paint7_linear_3609_6232)"/>
</g>
</g>
</g>
<defs>
<filter id="filter0_dd_3609_6232" x="0.850556" y="0.743768" width="52.2979" height="45.2901" filterUnits="userSpaceOnUse" color-interpolation-filters="sRGB">
<feFlood flood-opacity="0" result="BackgroundImageFix"/>
<feColorMatrix in="SourceAlpha" type="matrix" values="0 0 0 0 0 0 0 0 0 0 0 0 0 0 0 0 0 0 127 0" result="hardAlpha"/>
<feOffset dy="0.750634"/>
<feGaussianBlur stdDeviation="4.5038"/>
<feColorMatrix type="matrix" values="0 0 0 0 0 0 0 0 0 0 0 0 0 0 0 0 0 0 0.04 0"/>
<feBlend mode="normal" in2="BackgroundImageFix" result="effect1_dropShadow_3609_6232"/>
<feColorMatrix in="SourceAlpha" type="matrix" values="0 0 0 0 0 0 0 0 0 0 0 0 0 0 0 0 0 0 127 0" result="hardAlpha"/>
<feOffset dy="0.750634"/>
<feGaussianBlur stdDeviation="6.38039"/>
<feColorMatrix type="matrix" values="0 0 0 0 0.423529 0 0 0 0 0.643137 0 0 0 0 0.835294 0 0 0 0.32 0"/>
<feBlend mode="normal" in2="effect1_dropShadow_3609_6232" result="effect2_dropShadow_3609_6232"/>
<feBlend mode="normal" in="SourceGraphic" in2="effect2_dropShadow_3609_6232" result="shape"/>
</filter>
<linearGradient id="paint0_linear_3609_6232" x1="26.9998" y1="12.7539" x2="26.9998" y2="32.8334" gradientUnits="userSpaceOnUse">
<stop stop-color="#92C5F0"/>
<stop offset="1" stop-color="#68A7DD"/>
</linearGradient>
<linearGradient id="paint1_linear_3609_6232" x1="30.8578" y1="19.1335" x2="40.6991" y2="32.8326" gradientUnits="userSpaceOnUse">
<stop stop-color="#6EADE3"/>
<stop offset="1" stop-color="#3489D3"/>
</linearGradient>
<linearGradient id="paint2_linear_3609_6232" x1="26.9995" y1="21.574" x2="26.9995" y2="32.8335" gradientUnits="userSpaceOnUse">
<stop stop-color="#78B3E6"/>
<stop offset="1" stop-color="#4495DC"/>
</linearGradient>
<linearGradient id="paint3_linear_3609_6232" x1="17.1586" y1="19.1335" x2="26.9998" y2="32.8326" gradientUnits="userSpaceOnUse">
<stop stop-color="#A3D1F9"/>
<stop offset="1" stop-color="#7FB7E7"/>
</linearGradient>
<linearGradient id="paint4_linear_3609_6232" x1="39.0507" y1="14.7118" x2="35.3672" y2="21.0571" gradientUnits="userSpaceOnUse">
<stop stop-color="#C1E2FE"/>
<stop offset="1" stop-color="#8AC0EE"/>
</linearGradient>
<linearGradient id="paint5_linear_3609_6232" x1="26.9995" y1="15.7566" x2="26.9995" y2="21.574" gradientUnits="userSpaceOnUse">
<stop stop-color="#D3EBFF"/>
<stop offset="1" stop-color="#AFD5F5" stop-opacity="0.88"/>
</linearGradient>
<linearGradient id="paint6_linear_3609_6232" x1="20.2851" y1="14.7118" x2="16.6016" y2="21.0571" gradientUnits="userSpaceOnUse">
<stop stop-color="#D9EDFF"/>
<stop offset="1" stop-color="#C9E6FF"/>
</linearGradient>
<linearGradient id="paint7_linear_3609_6232" x1="26.9996" y1="12.7539" x2="26.9996" y2="15.7564" gradientUnits="userSpaceOnUse">
<stop stop-color="#F7FBFF"/>
<stop offset="1" stop-color="#E8F4FF"/>
</linearGradient>
</defs>
</svg>
