<svg width="20" height="20" viewBox="0 0 20 20" fill="none" xmlns="http://www.w3.org/2000/svg">
<g opacity="0.4">
<circle cx="10" cy="10" r="9.48899" fill="#DE9300" stroke="#FFE176" stroke-width="1.02201"/>
<path d="M10.0006 3.45654L12.017 7.48946L16.0499 7.99358L13.2807 11.0989L14.0335 15.5553L10.0006 13.5388L5.96763 15.5553L6.72717 11.0989L3.95117 7.99358L7.98409 7.48946L10.0006 3.45654Z" fill="#FFF4BC"/>
<path d="M10.2013 3.35619L10.0006 2.95477L9.79984 3.35619L7.83709 7.28169L3.92334 7.77091L3.49859 7.824L3.78387 8.14313L6.48778 11.1678L5.74642 15.5176L5.67204 15.954L6.06799 15.756L10.0006 13.7897L13.9331 15.756L14.3283 15.9536L14.2547 15.5179L13.5199 11.1678L16.2174 8.14293L16.5019 7.82393L16.0778 7.77091L12.164 7.28169L10.2013 3.35619Z" stroke="#C98500" stroke-opacity="0.7" stroke-width="0.448803"/>
</g>
</svg>
